<?xml version="1.0" encoding="UTF-8" standalone="no"?>
<svg
   xmlns:dc="http://purl.org/dc/elements/1.1/"
   xmlns:cc="http://creativecommons.org/ns#"
   xmlns:rdf="http://www.w3.org/1999/02/22-rdf-syntax-ns#"
   xmlns:svg="http://www.w3.org/2000/svg"
   xmlns="http://www.w3.org/2000/svg"
   xmlns:sodipodi="http://sodipodi.sourceforge.net/DTD/sodipodi-0.dtd"
   xmlns:inkscape="http://www.inkscape.org/namespaces/inkscape"
   version="1.0"
   viewBox="0 0 256 256"
   id="svg4"
   sodipodi:docname="clipboard.svg"
   inkscape:export-filename="/tmp/svg-show/picture/0/clipboard.svg.png"
   inkscape:export-xdpi="118.15385"
   inkscape:export-ydpi="118.15385"
   inkscape:version="0.92.4 (5da689c313, 2019-01-14)">
  <metadata
     id="metadata10">
    <rdf:RDF>
      <cc:Work
         rdf:about="">
        <dc:format>image/svg+xml</dc:format>
        <dc:type
           rdf:resource="http://purl.org/dc/dcmitype/StillImage" />
      </cc:Work>
    </rdf:RDF>
  </metadata>
  <defs
     id="defs8" />
  <sodipodi:namedview
     pagecolor="#ffffff"
     bordercolor="#666666"
     borderopacity="1"
     objecttolerance="10"
     gridtolerance="10"
     guidetolerance="10"
     inkscape:pageopacity="0"
     inkscape:pageshadow="2"
     inkscape:window-width="978"
     inkscape:window-height="480"
     id="namedview6"
     showgrid="false"
     inkscape:zoom="0.921875"
     inkscape:cx="-154.57627"
     inkscape:cy="128"
     inkscape:window-x="0"
     inkscape:window-y="36"
     inkscape:window-maximized="0"
     inkscape:current-layer="svg4" />
  <path
     d="M64 0a8 8 0 0 0-8 8v16H32a8 8 0 0 0-8 8v216a8 8 0 0 0 8 8h192a8 8 0 0 0 8-8V32a8 8 0 0 0-8-8h-24V8a8 8 0 0 0-8-8zm8 16h112v48H72V32zM40 40h16v32a8 8 0 0 0 .041.799 8 8 0 0 0 .12.79 8 8 0 0 0 .472 1.526 8 8 0 0 0 .765 1.403 8 8 0 0 0 .485.636 8 8 0 0 0 1.144 1.114 8 8 0 0 0 1.346.863 8 8 0 0 0 .729.326 8 8 0 0 0 1.54.426A8 8 0 0 0 64 80h128a8 8 0 0 0 1.59-.16 8 8 0 0 0 1.525-.473 8 8 0 0 0 .72-.347 8 8 0 0 0 .682-.418 8 8 0 0 0 2.215-2.28 8 8 0 0 0 .977-2.183 8 8 0 0 0 .29-2.14V40h16v200H40z"
     fill="currentColor"
     id="path2" />
</svg>
